<svg width="526" height="401" viewBox="0 0 526 401" fill="none" xmlns="http://www.w3.org/2000/svg">
<path d="M525.807 234.877C525.803 226.219 523.872 217.671 520.154 209.851C516.436 202.031 511.025 195.136 504.312 189.666C497.599 184.195 489.753 180.285 481.343 178.22C472.932 176.155 464.167 175.986 455.682 177.726C447.198 179.465 439.207 183.07 432.289 188.278C425.37 193.486 419.697 200.167 415.68 207.838C411.664 215.508 409.405 223.976 409.066 232.627C408.728 241.279 410.319 249.897 413.724 257.857C413.667 257.794 413.608 257.732 413.551 257.669C416.145 263.712 419.74 269.273 424.186 274.12C424.199 274.134 424.213 274.149 424.226 274.163C424.585 274.554 424.946 274.943 425.315 275.324C430.651 280.887 437.04 285.336 444.11 288.411C451.18 291.487 458.791 293.127 466.5 293.238L464.527 400.373H470.623L469.389 329.663L478.207 325.022L476.862 322.468L469.333 326.43L468.754 293.233C484.004 292.883 498.513 286.582 509.175 275.676C519.837 264.77 525.807 250.126 525.807 234.877Z" fill="#F1F7EE"/>
<path d="M352.495 206.426C352.49 196.28 350.227 186.262 345.87 177.098C341.513 167.934 335.171 159.854 327.305 153.442C319.438 147.031 310.243 142.449 300.386 140.029C290.53 137.609 280.258 137.411 270.315 139.45C260.372 141.488 251.007 145.712 242.899 151.816C234.791 157.919 228.143 165.749 223.436 174.739C218.729 183.728 216.082 193.651 215.685 203.79C215.289 213.928 217.153 224.028 221.143 233.357C221.077 233.283 221.007 233.211 220.941 233.136C223.98 240.218 228.194 246.736 233.404 252.415C233.42 252.432 233.436 252.449 233.451 252.466C233.872 252.924 234.294 253.38 234.727 253.826C240.98 260.346 248.467 265.56 256.753 269.164C265.038 272.768 273.958 274.69 282.992 274.82L280.68 400.373H287.824L286.378 317.507L296.712 312.068L295.136 309.075L286.312 313.718L285.633 274.814C303.506 274.404 320.508 267.019 333.004 254.239C345.499 241.458 352.495 224.297 352.495 206.426Z" fill="#F1F7EE"/>
<path d="M155.939 179.665C155.933 168.119 153.358 156.719 148.4 146.291C143.442 135.862 136.225 126.667 127.273 119.371C118.321 112.075 107.857 106.861 96.6405 104.107C85.4237 101.353 73.7345 101.128 62.4198 103.448C51.1051 105.768 40.4483 110.575 31.2215 117.52C21.9948 124.466 14.4291 133.376 9.07273 143.606C3.71634 153.835 0.703358 165.128 0.25209 176.665C-0.199178 188.203 1.92257 199.696 6.4636 210.313C6.38744 210.228 6.30877 210.146 6.23299 210.061C9.69189 218.12 14.4869 225.537 20.416 232C20.4337 232.02 20.4519 232.039 20.4697 232.058C20.9481 232.579 21.4292 233.098 21.9214 233.606C29.0377 241.026 37.5576 246.958 46.9863 251.06C56.4151 255.161 66.5649 257.349 76.8465 257.497L74.2151 400.373H82.3448L80.6994 306.073L92.4593 299.884L90.6653 296.477L80.6242 301.762L79.8517 257.489C100.19 257.023 119.539 248.619 133.758 234.075C147.978 219.531 155.939 200.002 155.939 179.665V179.665Z" fill="#F1F7EE"/>
<path d="M448.217 101.819C476.343 101.819 499.144 79.026 499.144 50.9095C499.144 22.793 476.343 0 448.217 0C420.091 0 397.29 22.793 397.29 50.9095C397.29 79.026 420.091 101.819 448.217 101.819Z" fill="#FF658A"/>
<path d="M145.455 213.127C201.825 213.127 247.523 167.446 247.523 111.095C247.523 54.7439 201.825 9.06244 145.455 9.06244C89.0846 9.06244 43.3875 54.7439 43.3875 111.095C43.3875 167.446 89.0846 213.127 145.455 213.127Z" fill="#3A5A40"/>
<path opacity="0.2" d="M70.0915 42.9452C60.5708 65.2079 59.2793 90.1294 66.4477 113.256C73.616 136.383 88.7771 156.209 109.222 169.19C129.666 182.171 154.062 187.462 178.05 184.118C202.038 180.773 224.055 169.011 240.166 150.933C234.35 164.535 225.646 176.71 214.656 186.615C203.665 196.519 190.653 203.917 176.518 208.295C162.384 212.674 147.467 213.928 132.8 211.971C118.133 210.014 104.067 204.892 91.5762 196.962C79.0856 189.031 68.4692 178.48 60.4626 166.041C52.4559 153.601 47.2504 139.57 45.2068 124.92C43.1631 110.27 44.3301 95.3502 48.627 81.1956C52.9239 67.0409 60.2478 53.9894 70.0915 42.9452Z" fill="black"/>
<path d="M145.735 111.095H146.016L151.063 400.373H140.408L145.735 111.095Z" fill="#3F3D56"/>
<path d="M164.32 268.663L161.969 264.198L145.097 273.078L147.448 277.543L164.32 268.663Z" fill="#3F3D56"/>
<path d="M301.571 397.667C301.571 397.667 301.939 389.953 309.488 390.85Z" fill="#3F3D56"/>
<path d="M299.437 390.327C301.524 390.327 303.216 388.636 303.216 386.55C303.216 384.464 301.524 382.773 299.437 382.773C297.351 382.773 295.659 384.464 295.659 386.55C295.659 388.636 297.351 390.327 299.437 390.327Z" fill="#3A5A40"/>
<path d="M299.889 392.91H298.823V400.373H299.889V392.91Z" fill="#3F3D56"/>
<path d="M39.7361 396.601C39.7361 396.601 40.1043 388.887 47.6536 389.784Z" fill="#3F3D56"/>
<path d="M37.603 389.26C39.6898 389.26 41.3814 387.569 41.3814 385.483C41.3814 383.397 39.6898 381.706 37.603 381.706C35.5163 381.706 33.8247 383.397 33.8247 385.483C33.8247 387.569 35.5163 389.26 37.603 389.26Z" fill="#3A5A40"/>
<path d="M38.0548 391.844H36.9883V399.307H38.0548V391.844Z" fill="#3F3D56"/>
<path d="M101.595 397.134C101.595 397.134 101.963 389.42 109.513 390.317Z" fill="#3F3D56"/>
<path d="M99.4619 389.793C101.549 389.793 103.24 388.102 103.24 386.016C103.24 383.93 101.549 382.239 99.4619 382.239C97.3752 382.239 95.6836 383.93 95.6836 386.016C95.6836 388.102 97.3752 389.793 99.4619 389.793Z" fill="#3A5A40"/>
<path d="M99.9137 392.377H98.8472V399.84H99.9137V392.377Z" fill="#3F3D56"/>
<path d="M266.106 49.3242L273.685 43.2646C267.797 42.6153 265.378 45.8252 264.388 48.3659C259.788 46.4566 254.781 48.9588 254.781 48.9588L269.945 54.462C269.18 52.4194 267.848 50.6371 266.106 49.3242Z" fill="#3F3D56"/>
<path d="M381.366 111.049L388.945 104.99C383.057 104.34 380.638 107.55 379.648 110.091C375.048 108.182 370.041 110.684 370.041 110.684L385.205 116.187C384.44 114.145 383.108 112.362 381.366 111.049V111.049Z" fill="#3F3D56"/>
<path d="M257.05 163.722L264.629 157.662C258.741 157.013 256.322 160.223 255.332 162.763C250.732 160.854 245.725 163.356 245.725 163.356L260.889 168.859C260.124 166.817 258.792 165.035 257.05 163.722V163.722Z" fill="#3F3D56"/>
<path d="M212.802 365.87C212.802 365.87 218.738 383.248 216.194 389.605L223.826 396.387L228.49 390.453C228.49 390.453 223.402 385.367 223.826 381.552C224.25 377.738 224.674 364.174 224.674 364.174L212.802 365.87Z" fill="#FFB9B9"/>
<path d="M241.208 399.775C240.861 399.978 240.53 400.17 240.226 400.346H213.91C213.666 400.206 213.47 399.996 213.348 399.743C213.226 399.49 213.184 399.205 213.227 398.928C213.35 398.299 213.664 397.019 214.054 395.548C214.976 392.067 216.331 387.509 216.624 387.994C216.625 387.994 216.625 387.994 216.626 387.995C216.627 387.995 216.627 387.995 216.628 387.996C216.628 387.996 216.629 387.997 216.629 387.998C216.629 387.998 216.629 387.999 216.629 388C217.04 388.757 217.888 392.147 220.01 391.726C222.133 391.299 225.524 390.452 225.524 390.452C225.524 390.452 224.314 387.733 225.471 386.635C225.72 386.404 226.035 386.256 226.372 386.214C228.916 385.793 228.916 389.604 228.916 389.604L238.243 394.69C239.047 394.912 239.831 395.199 240.589 395.548C242.482 396.433 244.354 397.947 241.208 399.775Z" fill="#2F2E41"/>
<path d="M195.842 359.512L184.818 372.651L181.85 379.433L185.666 382.4L189.058 381.128C189.058 381.128 192.026 373.499 194.994 372.227C197.962 370.956 205.17 362.479 205.17 362.479L195.842 359.512Z" fill="#FFB9B9"/>
<path d="M218.95 349.428L213.328 359.847L209.3 367.307C208.011 368.074 206.294 368.061 204.445 367.607C203.584 367.387 202.739 367.105 201.918 366.764C196.873 364.7 191.755 360.601 191.755 360.601L201.439 348.504L204.602 344.558L205.353 343.617L208.969 345.164L215.35 347.89L218.95 349.428Z" fill="#2F2E41"/>
<path d="M193.858 259.466L189.367 277.881L193.99 301.508C193.99 301.508 194.104 311.166 198.34 310.433C202.576 309.7 198.137 299.959 198.137 299.959L196.065 280.587L202.69 261.448C202.938 260.665 202.904 259.821 202.594 259.06C202.285 258.3 201.719 257.672 200.994 257.285V257.285C198.371 255.683 194.643 256.822 193.858 259.466Z" fill="#FFB9B9"/>
<path d="M209.622 243.589L205.806 255.456L198.598 251.642C198.598 251.642 201.566 243.165 201.566 241.893C201.566 240.622 209.622 243.589 209.622 243.589Z" fill="#FFB9B9"/>
<path d="M206.654 248.251C211.572 248.251 215.558 244.266 215.558 239.35C215.558 234.434 211.572 230.449 206.654 230.449C201.737 230.449 197.75 234.434 197.75 239.35C197.75 244.266 201.737 248.251 206.654 248.251Z" fill="#FFB9B9"/>
<path d="M208.986 258.211L207.29 256.516L206.866 254.397C206.866 254.397 201.354 247.191 196.69 249.734C195.233 250.529 194.148 252.359 193.345 254.499C191.301 260.092 191.491 266.257 193.878 271.713L201.354 289.153L218.314 287.457L215.346 276.437C215.346 276.437 218.314 269.655 212.802 264.993L208.986 258.211Z" fill="#3A5A40"/>
<path opacity="0.3" d="M218.95 349.428L213.328 359.847L209.3 367.307C208.011 368.074 206.294 368.061 204.445 367.607C204.123 365.463 206.048 354.129 204.534 344.889L204.602 344.558L205.353 343.617L208.969 345.164L215.35 347.89L218.95 349.428Z" fill="black"/>
<path d="M218.95 286.398C218.95 286.398 207.926 279.616 200.294 288.093L200.718 290.636C200.718 290.636 194.358 297.842 198.174 313.1C201.99 328.359 207.926 368.201 207.926 368.201C207.926 368.201 221.918 369.049 228.278 364.386C228.278 364.386 226.158 311.829 218.95 306.743V286.398Z" fill="#2F2E41"/>
<path d="M195.963 262.791L207.926 277.497L229.55 288.093C229.55 288.093 237.316 293.839 239.292 290.022C241.268 286.205 230.822 283.854 230.822 283.854L214.13 273.798L202.88 256.955C202.406 256.284 201.712 255.8 200.919 255.588C200.126 255.375 199.283 255.446 198.537 255.789C195.675 256.91 194.331 260.568 195.963 262.791Z" fill="#FFB9B9"/>
<path d="M188.037 380.197C188.037 380.197 190.636 376.93 192.188 378.988C193.741 381.047 190.357 382.811 190.357 382.811L190.161 393.431C190.161 393.431 192.007 401.552 187.022 398.414C182.037 395.277 181.841 394.901 180.861 393.022C179.88 391.143 177.854 383.595 176.106 381.16C174.357 378.726 172.756 373.824 174.831 373.22C176.907 372.615 186.583 370.464 186.101 371.18C185.619 371.897 183.003 374.217 184.36 375.9C185.716 377.583 188.037 380.197 188.037 380.197Z" fill="#2F2E41"/>
<path d="M211.317 231.753C211.317 231.742 211.318 231.732 211.318 231.721C211.318 229.29 210.597 226.913 209.246 224.892C207.895 222.871 205.974 221.295 203.728 220.365C201.481 219.434 199.009 219.191 196.623 219.665C194.238 220.14 192.047 221.31 190.328 223.029C188.608 224.748 187.437 226.938 186.963 229.323C186.488 231.707 186.732 234.179 187.662 236.425C188.593 238.671 190.169 240.59 192.191 241.941C194.213 243.292 196.59 244.012 199.022 244.012C199.308 244.012 200.437 246.151 200.718 246.132C200.735 239.644 204.934 232.189 211.317 231.753Z" fill="#2F2E41"/>
<path d="M185.878 230.449C190.328 230.449 193.934 226.844 193.934 222.396C193.934 217.948 190.328 214.343 185.878 214.343C181.429 214.343 177.822 217.948 177.822 222.396C177.822 226.844 181.429 230.449 185.878 230.449Z" fill="#2F2E41"/>
<path d="M185.509 210.197C187.45 210.185 189.33 210.875 190.803 212.139C192.275 213.404 193.24 215.159 193.52 217.079C193.8 218.999 193.376 220.956 192.326 222.588C191.276 224.221 189.671 225.418 187.807 225.961C188.961 225.959 190.102 225.709 191.151 225.228C192.2 224.747 193.133 224.046 193.887 223.172C194.642 222.299 195.199 221.274 195.522 220.166C195.845 219.058 195.927 217.894 195.76 216.753C195.594 215.611 195.184 214.518 194.558 213.549C193.932 212.579 193.104 211.756 192.132 211.134C191.16 210.512 190.065 210.107 188.922 209.945C187.78 209.784 186.615 209.869 185.509 210.197V210.197Z" fill="#2F2E41"/>
<path d="M204.534 229.178H208.774C210.798 229.178 212.739 229.981 214.171 231.412C215.602 232.843 216.406 234.784 216.406 236.807V236.807H204.534V229.178Z" fill="#2F2E41"/>
<path d="M404.958 400.467C404.958 400.467 405.326 392.753 412.875 393.65Z" fill="#3F3D56"/>
<path d="M334.033 400.467C334.033 400.467 334.402 392.753 341.951 393.65Z" fill="#3F3D56"/>
<path d="M75.3984 400.467C75.3984 400.467 75.7667 392.753 83.3159 393.65Z" fill="#3F3D56"/>
<path d="M436.954 400.467C436.954 400.467 437.322 392.753 444.871 393.65Z" fill="#3F3D56"/>
<path d="M422.022 400.467C422.022 400.467 422.391 392.753 429.94 393.65Z" fill="#3F3D56"/>
<path d="M391.221 400.467C391.221 400.467 390.853 392.753 383.304 393.65Z" fill="#3F3D56"/>
<path d="M268.57 400.467C268.57 400.467 268.202 392.753 260.652 393.65Z" fill="#3F3D56"/>
<path d="M166.716 400.467C166.716 400.467 166.347 392.753 158.798 393.65Z" fill="#3F3D56"/>
<path d="M58.4624 400.467C58.4624 400.467 58.0941 392.753 50.5449 393.65Z" fill="#3F3D56"/>
<path d="M469.078 400.467C469.078 400.467 468.71 392.753 461.161 393.65Z" fill="#3F3D56"/>
<path d="M423.218 401C423.218 401 422.849 393.286 415.3 394.183Z" fill="#3F3D56"/>
<path d="M526 399.458H0V400.643H526V399.458Z" fill="#3F3D56"/>
</svg>
